<svg width="48" height="48" viewBox="0 0 48 48" fill="none" xmlns="http://www.w3.org/2000/svg">
<circle cx="24" cy="24" r="23" stroke="#2D3440" stroke-width="2"/>
<path d="M33.3244 26.4851C32.9177 17.4097 25.0095 8.62095 24.657 8.23883C24.657 8.23883 24.657 8.23883 24.6118 8.23883L24.5034 8.11464L24.3859 8.03821H23.8798L23.708 8H23.6628L23.5002 8.11464L23.4007 8.20061C23.4007 8.20061 23.4007 8.20061 23.3556 8.20061C23.0031 8.62095 15.0949 17.4193 14.6701 26.4851C14.6656 26.5518 14.6656 26.6189 14.6701 26.6857C14.6701 27.0296 14.6701 27.3735 14.6701 27.7269C15.0136 37.5665 23.708 39.9739 23.7803 39.993H24.0063C24.0813 40.0023 24.1572 40.0023 24.2322 39.993C24.3136 39.993 32.999 37.5188 33.3334 27.7269C33.3334 27.3735 33.3334 27.0296 33.3334 26.6857C33.3334 26.6188 33.3244 26.5519 33.3244 26.4851ZM17.0561 23.132C18.8614 24.772 20.9024 26.0974 23.1025 27.0582V31.4049C20.8882 30.2489 17.4809 28.195 16.4777 26.3895C16.5591 25.2871 16.7438 24.1959 17.029 23.132H17.0561ZM18.8637 18.2599C20.0458 19.5651 21.4962 20.5653 23.1025 21.1831V24.947C21.0831 24.0461 19.2432 22.7496 17.6797 21.1258C18.0236 20.1479 18.4188 19.1912 18.8637 18.2599ZM30.3509 21.1258C28.7881 22.7505 26.9481 24.0471 24.9282 24.947V21.1831C26.5215 20.5601 27.959 19.5602 29.1308 18.2599C29.5867 19.1779 29.9941 20.1219 30.3509 21.0876V21.1258ZM24.9282 19.1579V11.5155C26.1361 13.0813 27.2384 14.7348 28.227 16.464C27.3553 17.6354 26.213 18.55 24.9101 19.1197L24.9282 19.1579ZM24.9282 31.424V27.0582C27.1366 26.106 29.1869 24.787 31.0016 23.1511C31.2785 24.219 31.4541 25.3135 31.5258 26.4182C30.5317 28.195 27.1244 30.2394 24.9101 31.3857L24.9282 31.424ZM23.1206 19.1579C21.8117 18.5809 20.6682 17.6522 19.8037 16.464C20.7905 14.7184 21.8928 13.0489 23.1025 11.4677L23.1206 19.1579ZM16.6675 29.4083C18.6442 31.05 20.8056 32.4265 23.1025 33.5065V37.7098C21.4594 37.0042 20.0096 35.8747 18.8855 34.4246C17.7615 32.9745 16.9989 31.2499 16.6675 29.4083ZM24.9101 37.7194V33.497C27.2088 32.4248 29.3708 31.0511 31.3451 29.4083C31.0277 31.2569 30.2705 32.9898 29.1448 34.4437C28.019 35.8977 26.5617 37.025 24.9101 37.7194Z" fill="#2D3440"/>
</svg>
